<svg width="24" height="24" viewBox="0 0 24 24" fill="none" xmlns="http://www.w3.org/2000/svg">
<path d="M5 2.99996L5 21C5.00057 21.1822 5.05084 21.3608 5.14538 21.5166C5.23992 21.6724 5.37517 21.7995 5.53655 21.8842C5.69794 21.9688 5.87936 22.0078 6.06128 21.9971C6.24321 21.9863 6.41874 21.9261 6.569 21.823L19.569 12.823C20.108 12.45 20.108 11.552 19.569 11.178L6.569 2.17796C6.41906 2.07379 6.24343 2.0127 6.06121 2.00133C5.87898 1.98996 5.69712 2.02875 5.53539 2.11348C5.37367 2.19821 5.23825 2.32564 5.14386 2.48193C5.04947 2.63822 4.99971 2.81738 5 2.99996Z" fill="#9D9D9D"/>
</svg>
