<svg width="47" height="43" viewBox="0 0 47 43" fill="none" xmlns="http://www.w3.org/2000/svg">
<path d="M45.3403 23.7795V13.0818C45.3403 9.92932 44.088 6.90598 41.8588 4.67686C39.6297 2.44774 36.6064 1.19543 33.4539 1.19543H13.2472C10.0947 1.19543 7.07139 2.44774 4.84227 4.67686C2.61315 6.90598 1.36084 9.92932 1.36084 13.0818V29.7226C1.36084 31.2836 1.66829 32.8292 2.26563 34.2713C2.86298 35.7135 3.73852 37.0238 4.84227 38.1275C7.07139 40.3567 10.0947 41.609 13.2472 41.609H28.1289" stroke="black" stroke-width="1.40977" stroke-linecap="round" stroke-linejoin="round"/>
<path d="M1.979 33.2886L8.49271 25.6814C9.34815 24.8318 10.4709 24.3038 11.6708 24.1868C12.8708 24.0699 14.0743 24.3711 15.0777 25.0395C16.0811 25.7079 17.2847 26.0092 18.4847 25.8922C19.6846 25.7752 20.8073 25.2473 21.6628 24.3977L27.2018 18.8586C28.7934 17.2617 30.9006 16.2822 33.1474 16.0949C35.3943 15.9077 37.6346 16.5249 39.4685 17.8364L45.3403 22.377M13.8653 17.0519C14.3836 17.0488 14.8961 16.9436 15.3737 16.7424C15.8513 16.5412 16.2846 16.2479 16.6488 15.8793C17.013 15.5106 17.3011 15.0738 17.4965 14.5938C17.692 14.1139 17.7909 13.6001 17.7878 13.0819C17.7847 12.5636 17.6795 12.0511 17.4783 11.5735C17.2771 11.0959 16.9838 10.6626 16.6152 10.2984C16.2465 9.93416 15.8097 9.6461 15.3298 9.45067C14.8498 9.25523 14.336 9.15625 13.8178 9.15937C12.7712 9.16568 11.7699 9.58749 11.0343 10.332C10.2987 11.0765 9.889 12.0828 9.8953 13.1294C9.90161 14.176 10.3234 15.1773 11.0679 15.9129C11.8125 16.6485 12.8187 17.0582 13.8653 17.0519Z" stroke="black" stroke-width="1.40977" stroke-linecap="round" stroke-linejoin="round"/>
<path d="M39.2949 28.5341V40.4204" stroke="black" stroke-width="1.40977" stroke-miterlimit="10" stroke-linecap="round"/>
<path d="M44.7461 33.5382L40.0701 28.8621C39.9688 28.7595 39.8481 28.678 39.7151 28.6224C39.582 28.5667 39.4393 28.5381 39.2951 28.5381C39.1509 28.5381 39.0081 28.5667 38.8751 28.6224C38.742 28.678 38.6214 28.7595 38.5201 28.8621L33.844 33.5382" stroke="black" stroke-width="1.40977" stroke-linecap="round" stroke-linejoin="round"/>
</svg>
