<svg width="45" height="45" viewBox="0 0 45 45" fill="none" xmlns="http://www.w3.org/2000/svg">
<path d="M22.5 3.75C12.1444 3.75 3.75 12.1444 3.75 22.5C3.75 32.8556 12.1444 41.25 22.5 41.25C32.8556 41.25 41.25 32.8556 41.25 22.5C41.25 12.1444 32.8556 3.75 22.5 3.75Z" stroke="white" stroke-width="2" stroke-linecap="round" stroke-linejoin="round"/>
<path d="M8.00818 34.3988C8.00818 34.3988 12.1876 29.0625 22.5001 29.0625C32.8126 29.0625 36.9938 34.3988 36.9938 34.3988M22.5001 22.5C23.9919 22.5 25.4226 21.9074 26.4775 20.8525C27.5324 19.7976 28.1251 18.3668 28.1251 16.875C28.1251 15.3832 27.5324 13.9524 26.4775 12.8975C25.4226 11.8426 23.9919 11.25 22.5001 11.25C21.0082 11.25 19.5775 11.8426 18.5226 12.8975C17.4677 13.9524 16.8751 15.3832 16.8751 16.875C16.8751 18.3668 17.4677 19.7976 18.5226 20.8525C19.5775 21.9074 21.0082 22.5 22.5001 22.5Z" stroke="white" stroke-width="2" stroke-linecap="round" stroke-linejoin="round"/>
</svg>
